HIERARCHY
ROOT Hips
{
	OFFSET -0.001795 -0.223333 0.028219
	CHANNELS 6 Xposition Yposition Zposition Zrotation Yrotation Xrotation 
	JOINT LeftUpLeg
	{
		OFFSET 0.069520 -0.091406 -0.006815
		CHANNELS 3 Zrotation Yrotation Xrotation
		JOINT LeftLeg
		{
			OFFSET 0.034277 -0.375199 -0.004496
			CHANNELS 3 Zrotation Yrotation Xrotation
			JOINT LeftFoot
			{
				OFFSET -0.013596 -0.397961 -0.043693
				CHANNELS 3 Zrotation Yrotation Xrotation
				JOINT LeftToe
				{
					OFFSET 0.026358 -0.055791 0.119288
					CHANNELS 3 Zrotation Yrotation Xrotation
					End Site
					{
						OFFSET 0.000000 0.000000 0.000000
					}
				}
			}
		}
	}
	JOINT RightUpLeg
	{
		OFFSET -0.067670 -0.090522 -0.004320
		CHANNELS 3 Zrotation Yrotation Xrotation
		JOINT RightLeg
		{
			OFFSET -0.038290 -0.382569 -0.008850
			CHANNELS 3 Zrotation Yrotation Xrotation
			JOINT RightFoot
			{
				OFFSET 0.015774 -0.398415 -0.042312
				CHANNELS 3 Zrotation Yrotation Xrotation
				JOINT RightToe
				{
					OFFSET -0.025372 -0.048144 0.123348
					CHANNELS 3 Zrotation Yrotation Xrotation
					End Site
					{
						OFFSET 0.000000 0.000000 0.000000
					}
				}
			}
		}
	}
	JOINT Spine
	{
		OFFSET -0.002533 0.108963 -0.026696
		CHANNELS 3 Zrotation Yrotation Xrotation
		JOINT Spine1
		{
			OFFSET 0.005487 0.135180 0.001092
			CHANNELS 3 Zrotation Yrotation Xrotation
			JOINT Spine2
			{
				OFFSET 0.001457 0.052922 0.025425
				CHANNELS 3 Zrotation Yrotation Xrotation
				JOINT Neck
				{
					OFFSET -0.002778 0.213870 -0.042857
					CHANNELS 3 Zrotation Yrotation Xrotation
					JOINT Head
					{
						OFFSET 0.005152 0.064970 0.051349
						CHANNELS 3 Zrotation Yrotation Xrotation
						End Site
						{
							OFFSET 0.000000 0.000000 0.000000
						}
					}
				}
				JOINT LeftShoulder
				{
					OFFSET 0.078845 0.121749 -0.034090
					CHANNELS 3 Zrotation Yrotation Xrotation
					JOINT LeftArm
					{
						OFFSET 0.090977 0.030469 -0.008868
						CHANNELS 3 Zrotation Yrotation Xrotation
						JOINT LeftForeArm
						{
							OFFSET 0.259612 -0.012772 -0.027456
							CHANNELS 3 Zrotation Yrotation Xrotation
							JOINT LeftHand
							{
								OFFSET 0.249234 0.008986 -0.001171
								CHANNELS 3 Zrotation Yrotation Xrotation
								End Site
								{
									OFFSET 0.000000 0.000000 0.000000
								}
							}
						}
					}
				}
				JOINT RightShoulder
				{
					OFFSET -0.081759 0.118833 -0.038615
					CHANNELS 3 Zrotation Yrotation Xrotation
					JOINT RightArm
					{
						OFFSET -0.096012 0.032551 -0.009143
						CHANNELS 3 Zrotation Yrotation Xrotation
						JOINT RightForeArm
						{
							OFFSET -0.253742 -0.013329 -0.021401
							CHANNELS 3 Zrotation Yrotation Xrotation
							JOINT RightHand
							{
								OFFSET -0.255298 0.007772 -0.005559
								CHANNELS 3 Zrotation Yrotation Xrotation
								End Site
								{
									OFFSET 0.000000 0.000000 0.000000
								}
							}
						}
					}
				}
			}
		}
	}
}
MOTION
Frames: 15
Frame Time: 0.050000
0.000000 0.956259 0.000000 -1.075751 3.841291 1.243648 6.056822 0.013825 4.910640 0.249193 0.214549 -6.979003 -1.363455 4.527587 16.601563 0.000000 0.000000 0.000000 -1.213377 -0.422035 4.699502 0.897155 -0.265610 -5.051424 -8.963386 -20.772513 21.691548 0.000000 0.000000 0.000000 -0.860104 -0.057025 1.997901 2.834968 -0.117398 -21.665020 -0.835147 0.505191 29.829538 1.286014 1.340010 -26.596074 0.000000 0.000000 0.000000 -24.978157 0.152636 -2.571588 -54.010377 -4.788530 -6.692806 -8.502313 -26.988099 3.375115 0.000000 0.000000 0.000000 15.219453 3.336026 1.626575 60.788630 0.811011 -8.206136 11.108323 33.817708 5.289958 0.000000 0.000000 0.000000 
0.000289 0.954991 0.000874 -1.254021 3.459450 1.783855 6.216818 0.001822 4.906475 0.203638 0.242126 -7.772123 -1.103697 4.807234 16.469521 0.000000 0.000000 0.000000 -1.264275 -0.319732 3.708475 1.076143 -0.249433 -4.201914 -8.527241 -20.181296 20.859492 0.000000 0.000000 0.000000 -0.503999 -0.020881 0.755195 2.719547 -0.119686 -21.072502 -1.126088 0.598320 29.523043 1.193254 1.439393 -27.608606 0.000000 0.000000 0.000000 -24.783105 1.526973 -3.344194 -55.113787 -4.761487 -6.821635 -9.016942 -26.344325 3.436067 0.000000 0.000000 0.000000 14.767464 3.280999 1.543796 61.805698 0.391773 -8.469808 10.190166 34.666074 5.163437 0.000000 0.000000 0.000000 
0.000435 0.954992 0.001588 -0.845231 3.510329 2.007878 5.975819 0.000335 4.425855 -0.167121 0.240442 -7.255845 -1.134424 4.755987 16.444724 0.000000 0.000000 0.000000 -1.713320 -0.281855 3.564989 0.871445 -0.256624 -4.874425 -8.803313 -20.534886 22.526667 0.000000 0.000000 0.000000 -0.780531 -0.014439 0.743921 2.663791 -0.054852 -22.148568 -1.355094 0.101514 30.503618 0.902334 1.537505 -28.015832 0.000000 0.000000 0.000000 -25.008073 1.397306 -3.086359 -55.580266 -5.454360 -6.697275 -7.309792 -25.018502 2.918614 0.000000 0.000000 0.000000 14.903517 3.910464 1.786842 62.273057 0.662613 -8.483697 8.985230 33.102143 4.490780 0.000000 0.000000 0.000000 
0.000507 0.955037 0.002434 -0.632122 3.468046 2.035376 5.786287 0.023320 4.707166 -0.257708 0.255449 -7.669761 -1.177163 4.745858 16.633567 0.000000 0.000000 0.000000 -2.104163 -0.281354 3.797621 1.196362 -0.282241 -4.969415 -8.628179 -20.305108 21.841617 0.000000 0.000000 0.000000 -1.020683 0.007465 0.205067 2.960215 -0.124204 -22.352784 -1.593743 -0.341026 30.819171 1.264123 1.218588 -27.572470 0.000000 0.000000 0.000000 -25.411363 2.058916 -3.380450 -55.898482 -5.158278 -6.909348 -7.010869 -24.954136 2.882007 0.000000 0.000000 0.000000 14.027124 4.486981 1.968971 62.577758 1.051609 -8.332906 8.993277 32.237424 4.304214 0.000000 0.000000 0.000000 
0.000511 0.955537 0.003105 -0.527391 3.575897 1.969690 5.471345 0.047681 4.808019 0.118511 0.242215 -7.676939 -1.261570 4.684107 16.773595 0.000000 0.000000 0.000000 -2.211005 -0.293976 3.995677 0.856685 -0.266522 -5.188379 -8.178804 -19.618091 22.412925 0.000000 0.000000 0.000000 -1.151469 0.006338 0.301315 3.548605 -0.298358 -21.887568 -2.000894 -0.502321 30.099496 1.382529 1.076042 -26.647803 0.000000 0.000000 0.000000 -25.158418 2.022605 -3.317580 -56.203547 -4.878553 -7.001512 -7.622988 -25.142483 3.035857 0.000000 0.000000 0.000000 13.928932 4.021783 1.697187 62.999390 1.248541 -8.194781 8.875657 31.477192 4.136534 0.000000 0.000000 0.000000 
0.000497 0.955477 0.003515 -0.572868 3.494560 1.978047 5.506736 0.034171 4.475398 0.132856 0.222461 -7.039651 -1.158558 4.760434 16.573044 0.000000 0.000000 0.000000 -2.406820 -0.279141 3.956786 1.002058 -0.268974 -4.973816 -7.563374 -18.720291 22.083469 0.000000 0.000000 0.000000 -1.224300 0.010456 0.203756 3.626326 -0.295284 -22.373800 -2.036132 -0.754810 30.338322 1.583940 0.903633 -26.642148 0.000000 0.000000 0.000000 -24.544166 2.111522 -3.175553 -56.755791 -4.999944 -7.060420 -8.260497 -25.090744 3.195328 0.000000 0.000000 0.000000 13.560409 4.015964 1.640932 63.079072 1.100231 -8.316543 9.547158 31.324220 4.276783 0.000000 0.000000 0.000000 
0.000425 0.955208 0.003526 -0.628376 3.544331 1.986499 5.642177 0.019192 4.344103 0.022602 0.220850 -6.844184 -1.148360 4.735321 16.430484 0.000000 0.000000 0.000000 -2.528704 -0.263457 3.844300 1.034803 -0.260236 -4.633365 -6.978910 -17.834549 21.703049 0.000000 0.000000 0.000000 -1.199681 0.008973 0.242657 3.850118 -0.367489 -22.094316 -2.217304 -1.106901 29.854821 1.533947 0.881541 -26.644552 0.000000 0.000000 0.000000 -23.567317 2.528051 -3.218211 -56.640703 -4.717539 -7.151465 -10.330812 -26.385719 3.878016 0.000000 0.000000 0.000000 13.291506 4.043540 1.582064 62.689275 1.135898 -8.215081 10.764210 31.855113 4.665973 0.000000 0.000000 0.000000 
0.000333 0.954800 0.003291 -0.640987 3.214318 2.026466 5.494488 0.026454 4.135920 0.247983 0.200011 -6.466694 -0.915427 4.975364 16.239417 0.000000 0.000000 0.000000 -2.835451 -0.217148 3.518539 1.394500 -0.265219 -3.951985 -6.412438 -16.986079 20.714565 0.000000 0.000000 0.000000 -1.087305 0.011799 0.101650 3.751802 -0.351529 -22.023575 -2.120333 -0.818860 30.022479 1.843963 0.696015 -26.381985 0.000000 0.000000 0.000000 -22.334898 1.811537 -2.653059 -55.845719 -5.822975 -6.592431 -12.355737 -28.520901 4.735897 0.000000 0.000000 0.000000 12.854438 4.250771 1.698145 61.932313 0.333818 -8.560269 14.549874 34.701802 6.352690 0.000000 0.000000 0.000000 
0.000225 0.954528 0.002862 -0.758068 3.120099 2.026604 5.671387 0.016261 4.119608 0.155323 0.204411 -6.462331 -0.844397 5.039960 16.150569 0.000000 0.000000 0.000000 -2.737021 -0.225157 3.564886 1.178468 -0.248516 -3.963348 -5.841180 -16.098027 20.345463 0.000000 0.000000 0.000000 -0.906495 0.006077 0.199235 3.982038 -0.435496 -21.654085 -2.196548 -0.721791 29.693061 1.843486 0.678486 -25.990642 0.000000 0.000000 0.000000 -20.991546 1.813278 -2.516742 -54.913099 -7.380291 -5.783710 -15.851055 -32.615866 6.540719 0.000000 0.000000 0.000000 12.018233 4.261404 1.695042 60.812754 -0.548140 -8.824854 19.695982 37.962336 8.857606 0.000000 0.000000 0.000000 
-0.000025 0.954424 0.002261 -0.657877 3.078123 1.829498 5.740993 0.027947 4.461606 -0.139211 0.226006 -6.728596 -0.876698 5.010681 16.231817 0.000000 0.000000 0.000000 -3.021242 -0.223303 3.716895 1.225608 -0.246971 -3.793569 -5.299751 -15.240038 20.017888 0.000000 0.000000 0.000000 -0.990140 0.001754 0.359039 4.068204 -0.459431 -21.664553 -2.094806 -0.765817 29.784039 1.890709 0.612647 -25.688551 0.000000 0.000000 0.000000 -20.090775 0.985152 -1.922599 -52.423387 -10.985609 -4.067103 -18.940975 -40.318250 9.448876 0.000000 0.000000 0.000000 11.108739 4.168665 1.633912 58.672695 -1.874794 -9.194444 28.777423 42.079175 13.647466 0.000000 0.000000 0.000000 
-0.000309 0.954128 0.001314 -0.491998 3.530682 1.597883 5.777627 0.031209 4.771415 -0.398061 0.244698 -7.072689 -1.152659 4.665287 16.247367 0.000000 0.000000 0.000000 -3.314535 -0.243320 4.088345 1.375540 -0.257245 -3.684990 -5.065538 -14.761353 19.348492 0.000000 0.000000 0.000000 -1.198206 -0.005747 0.688894 4.340824 -0.523923 -21.651730 -2.582576 -1.610662 29.512119 1.615737 0.601486 -24.701300 0.000000 0.000000 0.000000 -18.864871 0.291111 -1.284347 -49.006866 -15.806048 -1.991307 -24.497826 -51.324996 15.289638 0.000000 0.000000 0.000000 9.514969 4.116003 1.519337 56.221254 -3.302663 -9.457202 40.047789 46.785686 20.653580 0.000000 0.000000 0.000000 
-0.000545 0.954149 -0.000125 -0.448790 4.079257 1.412479 5.876246 0.016726 4.788850 -0.525143 0.247924 -7.096344 -1.448093 4.295794 16.233900 0.000000 0.000000 0.000000 -3.578877 -0.238618 4.105484 1.591175 -0.268616 -3.386084 -4.830285 -14.325689 19.539530 0.000000 0.000000 0.000000 -1.355039 -0.003302 0.669575 4.491087 -0.585669 -21.129576 -2.571324 -2.561087 29.039869 1.574901 0.456536 -23.841198 0.000000 0.000000 0.000000 -17.518129 -1.285544 -0.210911 -44.465453 -23.609085 0.860849 -28.048310 -63.493420 21.978628 0.000000 0.000000 0.000000 7.333482 3.820838 1.321503 52.608443 -4.392429 -9.269957 55.835451 51.743836 31.914348 0.000000 0.000000 0.000000 
-0.000544 0.953951 -0.001857 -0.203052 4.809605 1.408714 5.755706 0.011785 4.781736 -0.660858 0.258696 -7.489513 -1.861621 3.806276 16.317144 0.000000 0.000000 0.000000 -3.790107 -0.249905 4.282422 1.546665 -0.266816 -3.378041 -4.877976 -14.257237 18.987371 0.000000 0.000000 0.000000 -1.357458 0.001155 0.504476 4.561406 -0.610883 -20.814860 -2.965121 -4.010016 28.826025 0.700736 0.757542 -22.935401 0.000000 0.000000 0.000000 -15.378380 -3.390502 1.150316 -38.384096 -31.168349 2.808561 -18.225388 -75.201130 19.362312 0.000000 0.000000 0.000000 5.033424 3.337417 1.072690 49.143825 -4.416320 -8.659958 74.440363 57.348688 48.496006 0.000000 0.000000 0.000000 
-0.000295 0.954201 -0.003466 -0.328026 5.110486 1.360826 5.938817 -0.013868 4.565698 -0.730908 0.255711 -7.323084 -2.001885 3.629426 16.287957 0.000000 0.000000 0.000000 -3.699524 -0.248743 4.150479 1.519438 -0.259149 -3.159361 -4.780216 -14.063699 19.138730 0.000000 0.000000 0.000000 -1.306188 0.008397 0.212230 4.767630 -0.681492 -20.495803 -3.024816 -5.387628 28.699876 0.400605 0.701757 -22.330749 0.000000 0.000000 0.000000 -12.606420 -5.392203 2.331017 -33.121969 -38.880752 4.205530 30.427442 -81.225097 -20.193315 0.000000 0.000000 0.000000 2.189673 3.731456 1.236471 45.622269 -3.515346 -7.732094 97.012215 61.743374 71.518199 0.000000 0.000000 0.000000 
0.000156 0.954151 -0.004466 -0.151288 5.187669 1.504399 5.846762 -0.006204 4.689887 -0.961645 0.274628 -7.923970 -2.105869 3.558293 16.503318 0.000000 0.000000 0.000000 -3.796341 -0.242580 4.141585 1.456820 -0.261252 -3.428660 -5.033401 -14.454063 19.011947 0.000000 0.000000 0.000000 -1.234292 0.010501 0.125501 4.975258 -0.744790 -20.375548 -3.470501 -6.510412 28.441792 -0.578794 1.123221 -22.015100 0.000000 0.000000 0.000000 -9.366151 -6.772793 2.969165 -27.212515 -46.182604 4.684233 71.271342 -74.856027 -51.254491 0.000000 0.000000 0.000000 -0.222369 3.789064 1.314999 42.084914 -1.790583 -6.555258 118.693044 62.372718 94.261736 0.000000 0.000000 0.000000 
